<svg width="16" height="16" viewBox="0 0 16 16" fill="none" xmlns="http://www.w3.org/2000/svg">
<path d="M1.64649 7.64639C1.59992 7.69283 1.56298 7.74801 1.53778 7.80875C1.51257 7.8695 1.49959 7.93462 1.49959 8.00039C1.49959 8.06615 1.51257 8.13128 1.53778 8.19202C1.56298 8.25277 1.59992 8.30794 1.64649 8.35439L4.64649 11.3544C4.74037 11.4483 4.86771 11.501 5.00049 11.501C5.13326 11.501 5.2606 11.4483 5.35449 11.3544C5.44838 11.2605 5.50112 11.1332 5.50112 11.0004C5.50112 10.8676 5.44838 10.7403 5.35449 10.6464L3.20749 8.50039H13.0005C13.1331 8.50039 13.2603 8.44771 13.354 8.35394C13.4478 8.26017 13.5005 8.133 13.5005 8.00039C13.5005 7.86778 13.4478 7.7406 13.354 7.64683C13.2603 7.55307 13.1331 7.50039 13.0005 7.50039H3.20749L5.35449 5.35439C5.44838 5.2605 5.50112 5.13316 5.50112 5.00039C5.50112 4.86761 5.44838 4.74027 5.35449 4.64639C5.2606 4.5525 5.13326 4.49976 5.00049 4.49976C4.86771 4.49976 4.74037 4.5525 4.64649 4.64639L1.64649 7.64639Z" fill="white"/>
</svg>
