<svg width="16" height="16" viewBox="0 0 16 16" fill="none" xmlns="http://www.w3.org/2000/svg">
<path d="M7.14602 13.854C7.19247 13.9006 7.24764 13.9375 7.30839 13.9627C7.36913 13.9879 7.43425 14.0009 7.50002 14.0009C7.56579 14.0009 7.63091 13.9879 7.69165 13.9627C7.7524 13.9375 7.80758 13.9006 7.85402 13.854L10.854 10.854C10.9479 10.7601 11.0007 10.6328 11.0007 10.5C11.0007 10.3672 10.9479 10.2399 10.854 10.146C10.7601 10.0521 10.6328 9.99937 10.5 9.99937C10.3672 9.99937 10.2399 10.0521 10.146 10.146L8.00002 12.293V2.5C8.00002 2.36739 7.94734 2.24021 7.85357 2.14645C7.75981 2.05268 7.63263 2 7.50002 2C7.36741 2 7.24024 2.05268 7.14647 2.14645C7.0527 2.24021 7.00002 2.36739 7.00002 2.5V12.293L4.85402 10.146C4.76013 10.0521 4.6328 9.99937 4.50002 9.99937C4.36725 9.99937 4.23991 10.0521 4.14602 10.146C4.05213 10.2399 3.99939 10.3672 3.99939 10.5C3.99939 10.6328 4.05213 10.7601 4.14602 10.854L7.14602 13.854Z" fill="black"/>
</svg>
